# xmcd CD database file
#
# Track frame offsets:
#	150
#	10795
#	22315
#	35137
#	53082
#	62835
#	67765
#	85050
#	98162
#	108132
#	120940
#	128130
#	141387
#	153267
#	172085
#	185580
#	198607
#
# Disc length: 2830 seconds
#
# Revision: 5
# Processed by: cddbd v1.5.2PL0 Copyright (c) Steve Scherf et al.
# Submitted via: CDex 1.51
#
DISCID=e80b0c11
DTITLE=Jack Johnson - On And On
DYEAR=2003
DGENRE=Rock
TTITLE0=Times Like These
TTITLE1=The Horizon Has Been Defeated
TTITLE2=Trafic In The Sky
TTITLE3=Taylor
TTITLE4=Gone
TTITLE5=Cupid
TTITLE6=Wasting Time
TTITLE7=Holes To Heaven
TTITLE8=Dreams Be Dreams
TTITLE9=Tomorrow Morning
TTITLE10=Fall Line
TTITLE11=Cookie Jar
TTITLE12=Rodeo Clowns
TTITLE13=Cocoon
TTITLE14=Mediocre Bad Guys
TTITLE15=Symbol In My Driveway
TTITLE16=The Horizon Has Been Defeated (Acoustic Version)
EXTD=Released in UK by Island Records - 980 709-7 YEAR: 2003
EXTT0=
EXTT1=
EXTT2=
EXTT3=
EXTT4=
EXTT5=
EXTT6=
EXTT7=
EXTT8=
EXTT9=
EXTT10=
EXTT11=
EXTT12=
EXTT13=
EXTT14=
EXTT15=
EXTT16=
PLAYORDER=
